<mxfile host="app.diagrams.net" modified="2020-11-10T08:22:55.367Z" agent="5.0 (Windows NT 10.0; Win64; x64) AppleWebKit/537.36 (KHTML, like Gecko) Chrome/86.0.4240.183 Safari/537.36 Edg/86.0.622.63" etag="IYVAmydgyk_SRSUHItyO" version="13.9.2" type="github">
  <diagram name="Page-1" id="a7904f86-f2b4-8e86-fa97-74104820619b">
    <mxGraphModel dx="1185" dy="1472" grid="1" gridSize="10" guides="1" tooltips="1" connect="1" arrows="1" fold="1" page="1" pageScale="1" pageWidth="1100" pageHeight="850" background="#ffffff" math="0" shadow="0">
      <root>
        <mxCell id="0" />
        <mxCell id="1" parent="0" />
        <mxCell id="fR69wJohgGnZ8EREvLgE-19" style="edgeStyle=orthogonalEdgeStyle;rounded=0;orthogonalLoop=1;jettySize=auto;html=1;entryX=-0.012;entryY=0.559;entryDx=0;entryDy=0;entryPerimeter=0;endArrow=none;endFill=0;strokeColor=#000000;exitX=0.994;exitY=0.472;exitDx=0;exitDy=0;exitPerimeter=0;" edge="1" parent="1" source="fR69wJohgGnZ8EREvLgE-39">
          <mxGeometry relative="1" as="geometry">
            <mxPoint x="200" y="2.5000000000002274" as="sourcePoint" />
            <mxPoint x="418.31999999999994" y="213.85000000000014" as="targetPoint" />
          </mxGeometry>
        </mxCell>
        <mxCell id="fR69wJohgGnZ8EREvLgE-40" value="1" style="edgeLabel;html=1;align=center;verticalAlign=middle;resizable=0;points=[];" vertex="1" connectable="0" parent="fR69wJohgGnZ8EREvLgE-19">
          <mxGeometry x="-0.7848" relative="1" as="geometry">
            <mxPoint as="offset" />
          </mxGeometry>
        </mxCell>
        <mxCell id="fR69wJohgGnZ8EREvLgE-41" value="N" style="edgeLabel;html=1;align=center;verticalAlign=middle;resizable=0;points=[];" vertex="1" connectable="0" parent="fR69wJohgGnZ8EREvLgE-19">
          <mxGeometry x="0.6291" y="-4" relative="1" as="geometry">
            <mxPoint y="-7.89" as="offset" />
          </mxGeometry>
        </mxCell>
        <mxCell id="24794b860abc3c2d-20" value="&lt;p style=&quot;margin: 4px 0px 0px ; text-align: center&quot;&gt;产品工厂&lt;/p&gt;&lt;hr&gt;&lt;p style=&quot;margin: 0px ; margin-left: 8px&quot;&gt;主键&lt;/p&gt;&lt;p style=&quot;margin: 0px ; margin-left: 8px&quot;&gt;子产品ID&lt;/p&gt;&lt;p style=&quot;margin: 0px ; margin-left: 8px&quot;&gt;子产品编号&lt;/p&gt;&lt;p style=&quot;margin: 0px ; margin-left: 8px&quot;&gt;产品编码&lt;/p&gt;&lt;p style=&quot;margin: 0px ; margin-left: 8px&quot;&gt;工厂&lt;/p&gt;" style="verticalAlign=top;align=left;overflow=fill;fontSize=12;fontFamily=Helvetica;html=1;rounded=0;shadow=0;comic=0;labelBackgroundColor=none;strokeWidth=1" parent="1" vertex="1">
          <mxGeometry x="710" y="410" width="140" height="110" as="geometry" />
        </mxCell>
        <mxCell id="fR69wJohgGnZ8EREvLgE-2" value="&lt;p style=&quot;margin: 4px 0px 0px ; text-align: center&quot;&gt;产品仓库&lt;/p&gt;&lt;hr&gt;&lt;p style=&quot;margin: 0px ; margin-left: 8px&quot;&gt;主键&lt;/p&gt;&lt;p style=&quot;margin: 0px ; margin-left: 8px&quot;&gt;子产品ID&lt;br&gt;子产品编号&lt;/p&gt;&lt;p style=&quot;margin: 0px ; margin-left: 8px&quot;&gt;产品编码&lt;/p&gt;&lt;p style=&quot;margin: 0px ; margin-left: 8px&quot;&gt;工厂&lt;/p&gt;&lt;p style=&quot;margin: 0px ; margin-left: 8px&quot;&gt;库存地点&lt;/p&gt;&lt;p style=&quot;margin: 0px ; margin-left: 8px&quot;&gt;库存单位&lt;/p&gt;" style="verticalAlign=top;align=left;overflow=fill;fontSize=12;fontFamily=Helvetica;html=1;rounded=0;shadow=0;comic=0;labelBackgroundColor=none;strokeWidth=1;glass=1;" vertex="1" parent="1">
          <mxGeometry x="710" y="220" width="140" height="140" as="geometry" />
        </mxCell>
        <mxCell id="fR69wJohgGnZ8EREvLgE-3" value="&lt;p style=&quot;margin: 4px 0px 0px ; text-align: center&quot;&gt;产品评估&lt;/p&gt;&lt;hr&gt;&lt;p style=&quot;margin: 0px ; margin-left: 8px&quot;&gt;主键&lt;/p&gt;&lt;p style=&quot;margin: 0px ; margin-left: 8px&quot;&gt;子产品ID&lt;/p&gt;&lt;p style=&quot;margin: 0px ; margin-left: 8px&quot;&gt;子产品编号&lt;/p&gt;&lt;p style=&quot;margin: 0px ; margin-left: 8px&quot;&gt;产品编码&lt;/p&gt;&lt;p style=&quot;margin: 0px ; margin-left: 8px&quot;&gt;评估范围&lt;/p&gt;&lt;p style=&quot;margin: 0px ; margin-left: 8px&quot;&gt;评估类型&lt;/p&gt;&lt;p style=&quot;margin: 0px ; margin-left: 8px&quot;&gt;价格确定&lt;/p&gt;&lt;p style=&quot;margin: 0px ; margin-left: 8px&quot;&gt;评估类&lt;/p&gt;&lt;p style=&quot;margin: 0px ; margin-left: 8px&quot;&gt;评估级别&lt;/p&gt;&lt;p style=&quot;margin: 0px ; margin-left: 8px&quot;&gt;价格控制&lt;/p&gt;&lt;p style=&quot;margin: 0px ; margin-left: 8px&quot;&gt;周期价格&lt;/p&gt;&lt;p style=&quot;margin: 0px ; margin-left: 8px&quot;&gt;价格单位&lt;/p&gt;&lt;p style=&quot;margin: 0px ; margin-left: 8px&quot;&gt;标准价格&lt;/p&gt;&lt;p style=&quot;margin: 0px ; margin-left: 8px&quot;&gt;移动平均价&lt;/p&gt;&lt;p style=&quot;margin: 0px ; margin-left: 8px&quot;&gt;&lt;br&gt;&lt;/p&gt;" style="verticalAlign=top;align=left;overflow=fill;fontSize=12;fontFamily=Helvetica;html=1;rounded=0;shadow=0;comic=0;labelBackgroundColor=none;strokeWidth=1" vertex="1" parent="1">
          <mxGeometry x="710" y="-220" width="140" height="240" as="geometry" />
        </mxCell>
        <mxCell id="fR69wJohgGnZ8EREvLgE-4" value="&lt;p style=&quot;margin: 4px 0px 0px ; text-align: center&quot;&gt;产品分销渠道&lt;/p&gt;&lt;hr&gt;&lt;p style=&quot;margin: 0px ; margin-left: 8px&quot;&gt;主键&lt;/p&gt;&lt;p style=&quot;margin: 0px ; margin-left: 8px&quot;&gt;子产品ID&lt;br&gt;子产品编号&lt;/p&gt;&lt;p style=&quot;margin: 0px ; margin-left: 8px&quot;&gt;产品编码&lt;/p&gt;&lt;p style=&quot;margin: 0px ; margin-left: 8px&quot;&gt;销售组织&lt;/p&gt;&lt;p style=&quot;margin: 0px ; margin-left: 8px&quot;&gt;分销渠道&lt;/p&gt;" style="verticalAlign=top;align=left;overflow=fill;fontSize=12;fontFamily=Helvetica;html=1;rounded=0;shadow=0;comic=0;labelBackgroundColor=none;strokeWidth=1" vertex="1" parent="1">
          <mxGeometry x="50" y="410" width="140" height="130" as="geometry" />
        </mxCell>
        <mxCell id="fR69wJohgGnZ8EREvLgE-5" value="&lt;p style=&quot;margin: 4px 0px 0px ; text-align: center&quot;&gt;产品税分类&lt;/p&gt;&lt;hr&gt;&lt;p style=&quot;margin: 0px ; margin-left: 8px&quot;&gt;主键&lt;/p&gt;&lt;p style=&quot;margin: 0px ; margin-left: 8px&quot;&gt;子产品ID&lt;br&gt;子产品编号&lt;/p&gt;&lt;p style=&quot;margin: 0px ; margin-left: 8px&quot;&gt;产品编码&lt;/p&gt;&lt;p style=&quot;margin: 0px ; margin-left: 8px&quot;&gt;发货国&lt;/p&gt;&lt;p style=&quot;margin: 0px ; margin-left: 8px&quot;&gt;税分类1&lt;/p&gt;&lt;p style=&quot;margin: 0px ; margin-left: 8px&quot;&gt;税分类2&lt;/p&gt;" style="verticalAlign=top;align=left;overflow=fill;fontSize=12;fontFamily=Helvetica;html=1;rounded=0;shadow=0;comic=0;labelBackgroundColor=none;strokeWidth=1" vertex="1" parent="1">
          <mxGeometry x="710" y="50" width="140" height="140" as="geometry" />
        </mxCell>
        <mxCell id="fR69wJohgGnZ8EREvLgE-26" style="edgeStyle=orthogonalEdgeStyle;rounded=0;orthogonalLoop=1;jettySize=auto;html=1;exitX=1;exitY=0.25;exitDx=0;exitDy=0;entryX=0;entryY=0.558;entryDx=0;entryDy=0;entryPerimeter=0;endArrow=none;endFill=0;strokeColor=#000000;" edge="1" parent="1" source="fR69wJohgGnZ8EREvLgE-15" target="fR69wJohgGnZ8EREvLgE-3">
          <mxGeometry relative="1" as="geometry">
            <Array as="points">
              <mxPoint x="615" y="-80" />
              <mxPoint x="615" y="-110" />
              <mxPoint x="710" y="-110" />
            </Array>
          </mxGeometry>
        </mxCell>
        <mxCell id="fR69wJohgGnZ8EREvLgE-27" value="1" style="edgeLabel;html=1;align=center;verticalAlign=middle;resizable=0;points=[];" vertex="1" connectable="0" parent="fR69wJohgGnZ8EREvLgE-26">
          <mxGeometry x="-0.4135" relative="1" as="geometry">
            <mxPoint as="offset" />
          </mxGeometry>
        </mxCell>
        <mxCell id="fR69wJohgGnZ8EREvLgE-28" value="N" style="edgeLabel;html=1;align=center;verticalAlign=middle;resizable=0;points=[];" vertex="1" connectable="0" parent="fR69wJohgGnZ8EREvLgE-26">
          <mxGeometry x="0.66" y="1" relative="1" as="geometry">
            <mxPoint as="offset" />
          </mxGeometry>
        </mxCell>
        <mxCell id="fR69wJohgGnZ8EREvLgE-30" style="edgeStyle=orthogonalEdgeStyle;rounded=0;orthogonalLoop=1;jettySize=auto;html=1;exitX=1;exitY=0.75;exitDx=0;exitDy=0;entryX=-0.006;entryY=0.539;entryDx=0;entryDy=0;entryPerimeter=0;endArrow=none;endFill=0;strokeColor=#000000;" edge="1" parent="1" source="fR69wJohgGnZ8EREvLgE-15" target="fR69wJohgGnZ8EREvLgE-2">
          <mxGeometry relative="1" as="geometry" />
        </mxCell>
        <mxCell id="fR69wJohgGnZ8EREvLgE-31" value="1" style="edgeLabel;html=1;align=center;verticalAlign=middle;resizable=0;points=[];" vertex="1" connectable="0" parent="fR69wJohgGnZ8EREvLgE-30">
          <mxGeometry x="-0.5814" y="-2" relative="1" as="geometry">
            <mxPoint as="offset" />
          </mxGeometry>
        </mxCell>
        <mxCell id="fR69wJohgGnZ8EREvLgE-32" value="N" style="edgeLabel;html=1;align=center;verticalAlign=middle;resizable=0;points=[];" vertex="1" connectable="0" parent="fR69wJohgGnZ8EREvLgE-30">
          <mxGeometry x="0.8247" y="2" relative="1" as="geometry">
            <mxPoint as="offset" />
          </mxGeometry>
        </mxCell>
        <mxCell id="fR69wJohgGnZ8EREvLgE-33" style="edgeStyle=orthogonalEdgeStyle;rounded=0;orthogonalLoop=1;jettySize=auto;html=1;entryX=0;entryY=0.5;entryDx=0;entryDy=0;endArrow=none;endFill=0;strokeColor=#000000;" edge="1" parent="1" source="fR69wJohgGnZ8EREvLgE-15" target="24794b860abc3c2d-20">
          <mxGeometry relative="1" as="geometry">
            <Array as="points">
              <mxPoint x="610" y="350" />
              <mxPoint x="610" y="505" />
            </Array>
          </mxGeometry>
        </mxCell>
        <mxCell id="fR69wJohgGnZ8EREvLgE-34" value="1" style="edgeLabel;html=1;align=center;verticalAlign=middle;resizable=0;points=[];" vertex="1" connectable="0" parent="fR69wJohgGnZ8EREvLgE-33">
          <mxGeometry x="-0.662" y="1" relative="1" as="geometry">
            <mxPoint as="offset" />
          </mxGeometry>
        </mxCell>
        <mxCell id="fR69wJohgGnZ8EREvLgE-45" value="N" style="edgeLabel;html=1;align=center;verticalAlign=middle;resizable=0;points=[];" vertex="1" connectable="0" parent="fR69wJohgGnZ8EREvLgE-33">
          <mxGeometry x="0.6667" y="-2" relative="1" as="geometry">
            <mxPoint as="offset" />
          </mxGeometry>
        </mxCell>
        <mxCell id="fR69wJohgGnZ8EREvLgE-36" style="edgeStyle=orthogonalEdgeStyle;rounded=0;orthogonalLoop=1;jettySize=auto;html=1;endArrow=none;endFill=0;strokeColor=#000000;exitX=0;exitY=0.9;exitDx=0;exitDy=0;exitPerimeter=0;" edge="1" parent="1" source="fR69wJohgGnZ8EREvLgE-15" target="fR69wJohgGnZ8EREvLgE-4">
          <mxGeometry relative="1" as="geometry">
            <Array as="points">
              <mxPoint x="310" y="320" />
              <mxPoint x="310" y="430" />
            </Array>
          </mxGeometry>
        </mxCell>
        <mxCell id="fR69wJohgGnZ8EREvLgE-37" value="1" style="edgeLabel;html=1;align=center;verticalAlign=middle;resizable=0;points=[];" vertex="1" connectable="0" parent="fR69wJohgGnZ8EREvLgE-36">
          <mxGeometry x="-0.5556" y="8" relative="1" as="geometry">
            <mxPoint x="-18" y="-7" as="offset" />
          </mxGeometry>
        </mxCell>
        <mxCell id="fR69wJohgGnZ8EREvLgE-38" value="N" style="edgeLabel;html=1;align=center;verticalAlign=middle;resizable=0;points=[];" vertex="1" connectable="0" parent="fR69wJohgGnZ8EREvLgE-36">
          <mxGeometry x="0.6778" y="-1" relative="1" as="geometry">
            <mxPoint x="-9" y="-5.83" as="offset" />
          </mxGeometry>
        </mxCell>
        <mxCell id="fR69wJohgGnZ8EREvLgE-42" style="edgeStyle=orthogonalEdgeStyle;rounded=0;orthogonalLoop=1;jettySize=auto;html=1;entryX=0;entryY=0.571;entryDx=0;entryDy=0;entryPerimeter=0;endArrow=none;endFill=0;strokeColor=#000000;" edge="1" parent="1" source="fR69wJohgGnZ8EREvLgE-15" target="fR69wJohgGnZ8EREvLgE-5">
          <mxGeometry relative="1" as="geometry" />
        </mxCell>
        <mxCell id="fR69wJohgGnZ8EREvLgE-43" value="1" style="edgeLabel;html=1;align=center;verticalAlign=middle;resizable=0;points=[];" vertex="1" connectable="0" parent="fR69wJohgGnZ8EREvLgE-42">
          <mxGeometry x="-0.5332" y="1" relative="1" as="geometry">
            <mxPoint as="offset" />
          </mxGeometry>
        </mxCell>
        <mxCell id="fR69wJohgGnZ8EREvLgE-44" value="N" style="edgeLabel;html=1;align=center;verticalAlign=middle;resizable=0;points=[];" vertex="1" connectable="0" parent="fR69wJohgGnZ8EREvLgE-42">
          <mxGeometry x="0.6999" y="1" relative="1" as="geometry">
            <mxPoint as="offset" />
          </mxGeometry>
        </mxCell>
        <mxCell id="fR69wJohgGnZ8EREvLgE-15" value="&lt;p style=&quot;margin: 4px 0px 0px ; text-align: center&quot;&gt;子产品&lt;/p&gt;&lt;hr&gt;&lt;p style=&quot;margin: 0px ; margin-left: 8px&quot;&gt;主键&lt;/p&gt;&lt;p style=&quot;margin: 0px ; margin-left: 8px&quot;&gt;产品字码&lt;br&gt;产品编码&lt;/p&gt;&lt;p style=&quot;margin: 0px ; margin-left: 8px&quot;&gt;产品名称&lt;/p&gt;&lt;p style=&quot;margin: 0px ; margin-left: 8px&quot;&gt;大类编码&lt;/p&gt;&lt;p style=&quot;margin: 0px ; margin-left: 8px&quot;&gt;大类&lt;/p&gt;&lt;p style=&quot;margin: 0px ; margin-left: 8px&quot;&gt;生产公司&lt;/p&gt;&lt;p style=&quot;margin: 0px ; margin-left: 8px&quot;&gt;产线代码&lt;/p&gt;&lt;p style=&quot;margin: 0px ; margin-left: 8px&quot;&gt;产线&lt;/p&gt;&lt;p style=&quot;margin: 0px ; margin-left: 8px&quot;&gt;执行标准号&lt;/p&gt;&lt;p style=&quot;margin: 0px ; margin-left: 8px&quot;&gt;标准名称&lt;/p&gt;&lt;p style=&quot;margin: 0px ; margin-left: 8px&quot;&gt;标准序号&lt;/p&gt;&lt;p style=&quot;margin: 0px ; margin-left: 8px&quot;&gt;牌号&lt;/p&gt;&lt;p style=&quot;margin: 0px ; margin-left: 8px&quot;&gt;牌号序号&lt;/p&gt;&lt;p style=&quot;margin: 0px ; margin-left: 8px&quot;&gt;品名代码&lt;/p&gt;&lt;p style=&quot;margin: 0px ; margin-left: 8px&quot;&gt;品名&lt;/p&gt;&lt;p style=&quot;margin: 0px ; margin-left: 8px&quot;&gt;归属系统&lt;/p&gt;&lt;p style=&quot;margin: 0px ; margin-left: 8px&quot;&gt;搜索项&lt;/p&gt;&lt;p style=&quot;margin: 0px ; margin-left: 8px&quot;&gt;切边标记&lt;/p&gt;&lt;p style=&quot;margin: 0px ; margin-left: 8px&quot;&gt;尺寸精度等级&lt;/p&gt;&lt;p style=&quot;margin: 0px ; margin-left: 8px&quot;&gt;表面质量等级&lt;/p&gt;&lt;p style=&quot;margin: 0px ; margin-left: 8px&quot;&gt;交货状态&lt;/p&gt;&lt;p style=&quot;margin: 0px ; margin-left: 8px&quot;&gt;热处理方式&lt;/p&gt;&lt;p style=&quot;margin: 0px ; margin-left: 8px&quot;&gt;截面形状&lt;/p&gt;&lt;p style=&quot;margin: 0px ; margin-left: 8px&quot;&gt;速度等级&lt;/p&gt;&lt;p style=&quot;margin: 0px ; margin-left: 8px&quot;&gt;厚度精度等级&lt;/p&gt;&lt;p style=&quot;margin: 0px ; margin-left: 8px&quot;&gt;宽度精度等级&lt;/p&gt;&lt;p style=&quot;margin: 0px ; margin-left: 8px&quot;&gt;长度精度等级&lt;/p&gt;&lt;p style=&quot;margin: 0px ; margin-left: 8px&quot;&gt;涂油标记&lt;/p&gt;&lt;p style=&quot;margin: 0px ; margin-left: 8px&quot;&gt;表面状态&lt;/p&gt;&lt;p style=&quot;margin: 0px ; margin-left: 8px&quot;&gt;后处理方式&lt;/p&gt;&lt;p style=&quot;margin: 0px ; margin-left: 8px&quot;&gt;镀层重量&lt;/p&gt;&lt;p style=&quot;margin: 0px ; margin-left: 8px&quot;&gt;表面结构&lt;/p&gt;&lt;p style=&quot;margin: 0px ; margin-left: 8px&quot;&gt;镀层类型&lt;/p&gt;&lt;p style=&quot;margin: 0px ; margin-left: 8px&quot;&gt;基板类型&lt;/p&gt;&lt;p style=&quot;margin: 0px ; margin-left: 8px&quot;&gt;是否光整&lt;/p&gt;&lt;p style=&quot;margin: 0px ; margin-left: 8px&quot;&gt;化学处理分类&lt;/p&gt;&lt;p style=&quot;margin: 0px ; margin-left: 8px&quot;&gt;涂层种类&lt;/p&gt;&lt;p style=&quot;margin: 0px ; margin-left: 8px&quot;&gt;涂层结构&lt;/p&gt;&lt;p style=&quot;margin: 0px ; margin-left: 8px&quot;&gt;T弯性能&lt;/p&gt;" style="verticalAlign=top;align=left;overflow=fill;fontSize=12;fontFamily=Helvetica;html=1;rounded=0;shadow=0;comic=0;labelBackgroundColor=none;strokeWidth=1" vertex="1" parent="1">
          <mxGeometry x="370" y="-220" width="140" height="600" as="geometry" />
        </mxCell>
        <mxCell id="fR69wJohgGnZ8EREvLgE-39" value="&lt;p style=&quot;margin: 4px 0px 0px ; text-align: center&quot;&gt;产品主表&lt;/p&gt;&lt;hr&gt;&lt;p style=&quot;margin: 0px ; margin-left: 8px&quot;&gt;主键&lt;/p&gt;&lt;p style=&quot;margin: 0px ; margin-left: 8px&quot;&gt;产品编码&lt;br&gt;产品名称&lt;/p&gt;&lt;p style=&quot;margin: 0px ; margin-left: 8px&quot;&gt;大类编码&lt;/p&gt;&lt;p style=&quot;margin: 0px ; margin-left: 8px&quot;&gt;发大类&lt;/p&gt;&lt;p style=&quot;margin: 0px ; margin-left: 8px&quot;&gt;生产公司&lt;/p&gt;&lt;p style=&quot;margin: 0px ; margin-left: 8px&quot;&gt;产线代码&lt;/p&gt;&lt;p style=&quot;margin: 0px ; margin-left: 8px&quot;&gt;产线&lt;/p&gt;&lt;p style=&quot;margin: 0px ; margin-left: 8px&quot;&gt;执行标准号&lt;/p&gt;&lt;p style=&quot;margin: 0px ; margin-left: 8px&quot;&gt;标准名称&lt;/p&gt;&lt;p style=&quot;margin: 0px ; margin-left: 8px&quot;&gt;牌号&lt;/p&gt;&lt;p style=&quot;margin: 0px ; margin-left: 8px&quot;&gt;牌号序号&lt;/p&gt;&lt;p style=&quot;margin: 0px 0px 0px 8px&quot;&gt;品名代码&lt;/p&gt;&lt;p style=&quot;margin: 0px 0px 0px 8px&quot;&gt;品名&lt;/p&gt;&lt;p style=&quot;margin: 0px 0px 0px 8px&quot;&gt;归属系统&lt;/p&gt;&lt;p style=&quot;margin: 0px 0px 0px 8px&quot;&gt;搜索项&lt;/p&gt;&lt;p style=&quot;margin: 0px 0px 0px 8px&quot;&gt;切边标记&lt;/p&gt;&lt;p style=&quot;margin: 0px 0px 0px 8px&quot;&gt;尺寸精度等级&lt;/p&gt;&lt;p style=&quot;margin: 0px 0px 0px 8px&quot;&gt;表面质量等级&lt;/p&gt;&lt;p style=&quot;margin: 0px 0px 0px 8px&quot;&gt;交货状态&lt;/p&gt;&lt;p style=&quot;margin: 0px 0px 0px 8px&quot;&gt;热处理方式&lt;/p&gt;&lt;p style=&quot;margin: 0px 0px 0px 8px&quot;&gt;截面形状&lt;/p&gt;&lt;p style=&quot;margin: 0px 0px 0px 8px&quot;&gt;速度等级&lt;/p&gt;&lt;p style=&quot;margin: 0px 0px 0px 8px&quot;&gt;厚度精度等级&lt;/p&gt;&lt;p style=&quot;margin: 0px 0px 0px 8px&quot;&gt;宽度精度等级&lt;/p&gt;&lt;p style=&quot;margin: 0px 0px 0px 8px&quot;&gt;长度精度等级&lt;/p&gt;&lt;p style=&quot;margin: 0px 0px 0px 8px&quot;&gt;涂油标记&lt;/p&gt;&lt;p style=&quot;margin: 0px 0px 0px 8px&quot;&gt;表面状态&lt;/p&gt;&lt;p style=&quot;margin: 0px 0px 0px 8px&quot;&gt;后处理方式&lt;/p&gt;&lt;p style=&quot;margin: 0px 0px 0px 8px&quot;&gt;镀层重量&lt;/p&gt;&lt;p style=&quot;margin: 0px 0px 0px 8px&quot;&gt;表面结构&lt;/p&gt;&lt;p style=&quot;margin: 0px 0px 0px 8px&quot;&gt;镀层类型&lt;/p&gt;&lt;p style=&quot;margin: 0px 0px 0px 8px&quot;&gt;基板类型&lt;/p&gt;&lt;p style=&quot;margin: 0px 0px 0px 8px&quot;&gt;是否光整&lt;/p&gt;&lt;p style=&quot;margin: 0px 0px 0px 8px&quot;&gt;化学处理分类&lt;/p&gt;&lt;p style=&quot;margin: 0px 0px 0px 8px&quot;&gt;涂层种类&lt;/p&gt;&lt;p style=&quot;margin: 0px 0px 0px 8px&quot;&gt;涂层结构&lt;/p&gt;&lt;p style=&quot;margin: 0px 0px 0px 8px&quot;&gt;T弯性能&lt;/p&gt;" style="verticalAlign=top;align=left;overflow=fill;fontSize=12;fontFamily=Helvetica;html=1;rounded=0;shadow=0;comic=0;labelBackgroundColor=none;strokeWidth=1" vertex="1" parent="1">
          <mxGeometry x="50" y="-220" width="140" height="580" as="geometry" />
        </mxCell>
      </root>
    </mxGraphModel>
  </diagram>
</mxfile>
